<?xml version="1.0" encoding="UTF-8"?>
<svg width="212px" height="213px" viewBox="0 0 212 213" version="1.1" xmlns="http://www.w3.org/2000/svg" xmlns:xlink="http://www.w3.org/1999/xlink">
    <!-- Generator: Sketch 43.1 (39012) - http://www.bohemiancoding.com/sketch -->
    <title>Combined Shape</title>
    <desc>Created with Sketch.</desc>
    <defs></defs>
    <g stroke="none" stroke-width="1" fill="none" fill-rule="evenodd">
        <g transform="translate(-126.000000, -86.000000)" fill="#000">
            <path d="M232,298.90625 C173.457817,298.90625 126,251.448433 126,192.90625 C126,134.364067 173.457817,86.90625 232,86.90625 C290.542183,86.90625 338,134.364067 338,192.90625 C338,251.448433 290.542183,298.90625 232,298.90625 Z M201.404185,156.966753 L173.526083,222.643443 L189.752089,229.530974 L217.63019,163.854284 L201.404185,156.966753 Z M237.826048,156.966753 L209.947947,222.643443 L226.173952,229.530974 L254.052053,163.854284 L237.826048,156.966753 Z M274.247911,156.966753 L246.36981,222.643443 L262.595815,229.530974 L290.473917,163.854284 L274.247911,156.966753 Z"></path>
        </g>
    </g>
</svg>
