<?xml version="1.0" encoding="utf-8"?>
<!-- Generator: Adobe Illustrator 16.0.0, SVG Export Plug-In . SVG Version: 6.00 Build 0)  -->
<!DOCTYPE svg PUBLIC "-//W3C//DTD SVG 1.1//EN" "http://www.w3.org/Graphics/SVG/1.1/DTD/svg11.dtd">
<svg version="1.1" id="Layer_1" xmlns="http://www.w3.org/2000/svg" xmlns:xlink="http://www.w3.org/1999/xlink" x="0px" y="0px"
	 width="64px" height="64px" viewBox="0 0 64 64" enable-background="new 0 0 64 64" xml:space="preserve">
<g id="Rectangle_52">
	<g>
		<rect x="3" y="1" fill="#D0DEEB" width="58" height="58"/>
	</g>
</g>
<g id="Rectangle_58">
	<g>
		<path fill="#D0DEEB" d="M9,7v46h46V7H9z M9,63h6v-4H9V63z M49,63h6v-4h-6V63z"/>
	</g>
</g>
<g id="Ellipse_36">
	<g>
		<circle fill="#7E8892" cx="27" cy="30" r="10"/>
	</g>
</g>
<g id="Rounded_Rectangle_59">
	<g>
		<path fill="#E2EEF9" d="M46,16c-1.104,0-2,0.896-2,2v24c0,1.104,0.896,2,2,2s2-0.896,2-2V18C48,16.896,47.104,16,46,16z M7,23h4
			v-8H7V23z M7,45h4v-8H7V45z"/>
	</g>
</g>
<g id="Rectangle_84">
	<g>
		<circle fill="#FFFFFF" cx="27" cy="30" r="5"/>
	</g>
</g>
<g id="Ellipse_14">
	<g>
		<path fill="#2B3139" d="M51,48H13c-0.553,0-1,0.447-1,1s0.447,1,1,1h38c0.553,0,1-0.447,1-1S51.553,48,51,48z M60,0H4
			C2.896,0,2,0.896,2,2v56c0,1.104,0.896,2,2,2h4v2c0,1.104,0.896,2,2,2h4c1.104,0,2-0.896,2-2v-2h32v2c0,1.104,0.896,2,2,2h4
			c1.104,0,2-0.896,2-2v-2h4c1.104,0,2-0.896,2-2V2C62,0.896,61.104,0,60,0z M14,62h-4v-2h4V62z M54,62h-4v-2h4V62z M60,58h-5.999
			C54,58,54,58,54,58h-4h-0.001H14.001C14,58,14,58,14,58h-4H9.999H4V2h56V58z M8,46v8h48V6H8v8c-1.104,0-2,0.896-2,2v6
			c0,1.104,0.896,2,2,2v12c-1.104,0-2,0.896-2,2v6C6,45.104,6.896,46,8,46z M10,8h44v44H10v-6c1.104,0,2-0.896,2-2v-6
			c0-1.104-0.896-2-2-2V24c1.104,0,2-0.896,2-2v-6c0-1.104-0.896-2-2-2V8z M8,16h2v2H8V16z M8,20h2v2H8V20z M8,38h2v2H8V38z M8,42h2
			v2H8V42z M38,30c0-6.075-4.925-11-11-11s-11,4.925-11,11s4.925,11,11,11S38,36.075,38,30z M28,38.941v-2.021
			c1.185-0.17,2.271-0.635,3.187-1.32l1.427,1.428C31.319,38.063,29.735,38.749,28,38.941z M34.028,35.613l-1.428-1.427
			c0.686-0.915,1.15-2.002,1.32-3.187h2.021C35.749,32.735,35.063,34.319,34.028,35.613z M35.941,29h-2.021
			c-0.17-1.185-0.635-2.271-1.32-3.187l1.428-1.427C35.063,25.681,35.749,27.265,35.941,29z M28,21.059
			c1.735,0.192,3.319,0.878,4.614,1.914l-1.427,1.427c-0.916-0.686-2.002-1.15-3.187-1.32V21.059z M32,30c0,2.762-2.238,5-5,5
			s-5-2.238-5-5s2.238-5,5-5S32,27.238,32,30z M26,21.059v2.021c-1.185,0.17-2.271,0.634-3.187,1.32l-1.427-1.427
			C22.681,21.937,24.265,21.25,26,21.059z M19.972,24.386l1.427,1.427c-0.686,0.916-1.15,2.002-1.32,3.187h-2.021
			C18.25,27.265,18.937,25.681,19.972,24.386z M18.059,31h2.021c0.17,1.185,0.634,2.271,1.32,3.187l-1.428,1.427
			C18.937,34.319,18.25,32.735,18.059,31z M26,38.941c-1.735-0.192-3.319-0.878-4.614-1.913l1.427-1.428
			c0.916,0.686,2.002,1.15,3.187,1.32V38.941z M13,12h38c0.553,0,1-0.447,1-1s-0.447-1-1-1H13c-0.553,0-1,0.447-1,1S12.447,12,13,12
			z M49,42V18c0-1.657-1.343-3-3-3s-3,1.343-3,3v24c0,1.657,1.343,3,3,3S49,43.657,49,42z M45,42V18c0-0.553,0.447-1,1-1
			s1,0.447,1,1v24c0,0.553-0.447,1-1,1S45,42.553,45,42z"/>
	</g>
</g>
</svg>
