<?xml version="1.0" encoding="utf-8"?>
<!-- Generator: Adobe Illustrator 16.0.0, SVG Export Plug-In . SVG Version: 6.00 Build 0)  -->
<!DOCTYPE svg PUBLIC "-//W3C//DTD SVG 1.1//EN" "http://www.w3.org/Graphics/SVG/1.1/DTD/svg11.dtd">
<svg version="1.1" id="Layer_1" xmlns="http://www.w3.org/2000/svg" xmlns:xlink="http://www.w3.org/1999/xlink" x="0px" y="0px"
	 width="64px" height="64px" viewBox="0 0 64 64" enable-background="new 0 0 64 64" xml:space="preserve">
<g id="Ellipse_24">
	<g>
		<path fill="#D8EFFC" d="M16.014,44c-1.565-1.435-2.89-1.551-4.385-0.056l-9.483,9.483c-1.536,1.536-1.099,4.401,0.438,5.938
			l7.868-7.678c0.588-0.588,2.048-1.14,3-0.188c0.817,0.817,0.539,2.292,0.094,2.737l-3.271,3.334
			c1.52,1.519,4.414,1.889,5.933,0.37l5.124-5.123c1.49-1.491,1.135-2.281-0.316-3.818L16.014,44z M11.014,11h27
			c5.522-5.522,4.478-4.478,10-10h-47C1.014,6.522,5.491,11,11.014,11z M49.014,27v5h4v-7L49.014,27z"/>
	</g>
</g>
<g id="Rounded_Rectangle_53">
	<g>
		<path fill="#F27070" d="M60.014,4c-3.957-3.957-11.775-4.018-15.732-0.061l-6.268,6.268V14l-12,12h-3.793l-6.268,6.268
			C11.996,36.225,12.057,44.043,16.014,48s11.744,3.986,15.7,0.029l6.3-6.3V38l12-12h3.729l6.3-6.3C64,15.744,63.971,7.957,60.014,4
			z"/>
	</g>
</g>
<g id="Rounded_Rectangle_54">
	<g>
		<path fill="#C64D4D" d="M45.822,18.16c-1.552-1.553-4.069-1.553-5.621,0L30.174,28.188c-1.553,1.552-1.553,4.069,0,5.621
			c1.553,1.553,4.069,1.553,5.622,0l10.026-10.026C47.375,22.229,47.375,19.713,45.822,18.16z"/>
	</g>
</g>
<g id="Ellipse_25">
	<g>
		<path fill="#D8EFFC" d="M24.014,36c-2.209,0-4,1.791-4,4s1.791,4,4,4s4-1.791,4-4S26.223,36,24.014,36z M52.014,8
			c-2.209,0-4,1.791-4,4s1.791,4,4,4s4-1.791,4-4S54.223,8,52.014,8z"/>
	</g>
</g>
<g id="Rounded_Rectangle_52">
	<g>
		<path fill="#2B3139" d="M52.014,7c-2.762,0-5,2.238-5,5s2.238,5,5,5s5-2.238,5-5S54.775,7,52.014,7z M52.014,15
			c-1.657,0-3-1.343-3-3s1.343-3,3-3s3,1.343,3,3S53.671,15,52.014,15z M60.504,20.358c4.661-4.661,4.661-12.219,0-16.88
			c-2.564-2.564-6.006-3.709-9.358-3.452C51.101,0.021,51.061,0,51.014,0h-51c0,0.27,0.023,0.534,0.041,0.8
			C0.04,0.867,0.014,0.929,0.014,1c0,0.145,0.034,0.281,0.089,0.405C0.8,7.369,5.863,12,12.014,12h25v1.629L25.643,25h-3.539
			l-6.611,6.611c-2.915,2.915-4.007,6.963-3.275,10.727L1.801,52.558c-2.07,2.03-2.335,5.157-0.805,7.474
			c-0.005,0.251,0.086,0.503,0.277,0.694c0.139,0.139,0.312,0.208,0.49,0.244c0.014,0.015,0.022,0.031,0.037,0.045l0.032-0.031
			c0.283,0.036,0.578-0.04,0.796-0.258l8.689-8.455c0.387-0.388,1.014-0.388,1.4,0c0.387,0.389,0.387,1.018,0,1.405l-3.431,3.709
			c-0.218,0.218-0.294,0.513-0.258,0.796l-0.031,0.032c0.014,0.014,0.03,0.023,0.045,0.037c0.036,0.179,0.105,0.352,0.244,0.49
			c0.191,0.191,0.443,0.282,0.694,0.277c2.316,1.53,5.443,1.266,7.474-0.805l6.06-6.247c3.192,0.111,6.42-1.039,8.856-3.476
			l6.642-6.642v-3.478l9-9V32c0,0.553,0.447,1,1,1h5.643l-4.175,4.175c-0.275,0.178-0.468,0.473-0.468,0.825
			c0,0.01,0.005,0.018,0.006,0.027c-0.003,0.249,0.09,0.498,0.279,0.688s0.438,0.282,0.688,0.279C50.996,38.995,51.004,39,51.014,39
			h3.643l-4.175,4.175c-0.275,0.178-0.468,0.473-0.468,0.825c0,0.01,0.005,0.018,0.006,0.027c-0.003,0.249,0.09,0.498,0.279,0.688
			s0.438,0.282,0.688,0.279C50.996,44.995,51.004,45,51.014,45h3.643l-4.175,4.175c-0.275,0.178-0.468,0.473-0.468,0.825
			c0,0.01,0.005,0.018,0.006,0.027c-0.003,0.249,0.09,0.498,0.279,0.688s0.438,0.282,0.688,0.279C50.996,50.995,51.004,51,51.014,51
			h3.643l-4.175,4.175c-0.275,0.178-0.468,0.473-0.468,0.825c0,0.01,0.005,0.018,0.006,0.027c-0.003,0.249,0.09,0.498,0.279,0.688
			s0.438,0.282,0.688,0.279C50.996,56.995,51.004,57,51.014,57h5v6c0,0.553,0.447,1,1,1s1-0.447,1-1v-7c0-0.553-0.447-1-1-1h-3.643
			l4.175-4.175c0.275-0.178,0.468-0.473,0.468-0.825c0-0.01-0.005-0.018-0.006-0.027c0.003-0.249-0.09-0.498-0.279-0.688
			s-0.438-0.282-0.688-0.279C57.031,49.005,57.023,49,57.014,49h-3.643l4.175-4.175c0.275-0.178,0.468-0.473,0.468-0.825
			c0-0.01-0.005-0.018-0.006-0.027c0.003-0.249-0.09-0.498-0.279-0.688s-0.438-0.282-0.688-0.279C57.031,43.005,57.023,43,57.014,43
			h-3.643l4.175-4.175c0.275-0.178,0.468-0.473,0.468-0.825c0-0.01-0.005-0.018-0.006-0.027c0.003-0.249-0.09-0.498-0.279-0.688
			s-0.438-0.282-0.688-0.279C57.031,37.005,57.023,37,57.014,37h-3.643l4.175-4.175c0.275-0.178,0.468-0.473,0.468-0.825
			c0-0.01-0.005-0.018-0.006-0.028c0.003-0.249-0.09-0.498-0.279-0.687c-0.189-0.19-0.438-0.282-0.688-0.279
			c-0.01,0-0.018-0.006-0.027-0.006h-3v-4.151L60.504,20.358z M12.014,10c-4.837,0-8.873-3.436-9.799-8h43.213
			c-0.636,0.426-1.241,0.917-1.803,1.479L43.104,4h-21.09c-0.553,0-1,0.447-1,1s0.447,1,1,1h19.09l-4,4H12.014z M16.047,56.776
			c-1.17,1.192-2.886,1.488-4.327,0.889l2.4-2.583c1.161-1.165,1.161-3.053,0-4.217s-3.043-1.164-4.203,0l-7.568,7.429
			c-0.6-1.441-0.304-3.157,0.889-4.327l9.626-9.444c0.583,1.443,1.458,2.797,2.629,3.968c1.591,1.591,3.521,2.625,5.556,3.13
			L16.047,56.776z M52.014,31h-2v-3.629L50.385,27h1.629V31z M52.998,25h-2.984c-0.334,0-0.615,0.174-0.797,0.426L37.439,37.203
			c-0.251,0.182-0.426,0.463-0.426,0.797v2.984l-6.114,6.113c-3.87,3.87-10.145,3.87-14.015,0s-3.87-10.145,0-14.015l6.091-6.091
			C22.989,26.993,23,27,23.014,27h3c0.334,0,0.616-0.174,0.797-0.426l11.777-11.777c0.251-0.182,0.426-0.462,0.426-0.797v-3
			c0-0.014-0.007-0.025-0.008-0.038l6.091-6.091c3.87-3.87,10.145-3.87,14.015,0s3.87,10.145,0,14.015L52.998,25z M52.014,11
			c-0.553,0-1,0.447-1,1s0.447,1,1,1s1-0.447,1-1S52.566,11,52.014,11z M24.014,39c-0.553,0-1,0.447-1,1s0.447,1,1,1s1-0.447,1-1
			S24.566,39,24.014,39z M39.586,17.44L29.454,27.572c-1.921,1.921-1.921,5.035,0,6.957c1.921,1.921,5.036,1.921,6.957,0
			l10.132-10.132c1.921-1.921,1.921-5.036,0-6.957C44.621,15.52,41.507,15.52,39.586,17.44z M45.096,23.204l-9.878,9.878
			c-1.192,1.192-3.126,1.192-4.318,0s-1.192-3.125,0-4.317l9.879-9.879c1.192-1.192,3.125-1.192,4.317,0
			S46.288,22.012,45.096,23.204z M24.014,35c-2.762,0-5,2.238-5,5s2.238,5,5,5s5-2.238,5-5S26.775,35,24.014,35z M24.014,43
			c-1.657,0-3-1.343-3-3s1.343-3,3-3s3,1.343,3,3S25.671,43,24.014,43z M16.014,4h-6c-0.553,0-1,0.447-1,1s0.447,1,1,1h6
			c0.553,0,1-0.447,1-1S16.566,4,16.014,4z"/>
	</g>
</g>
</svg>
